<svg width="145" height="32" viewBox="0 0 145 32" fill="none" xmlns="http://www.w3.org/2000/svg">
<path d="M6.36711 23.1466C5.3897 23.1466 4.51004 22.9791 3.72811 22.6439C2.94619 22.2949 2.33181 21.8062 1.885 21.1778C1.43819 20.5495 1.21478 19.8164 1.21478 18.9787H3.77C3.82585 19.607 4.0702 20.1236 4.50306 20.5286C4.94987 20.9335 5.57122 21.1359 6.36711 21.1359C7.19093 21.1359 7.83322 20.9405 8.294 20.5495C8.75478 20.1446 8.98517 19.6279 8.98517 18.9996C8.98517 18.5109 8.83856 18.113 8.54533 17.8058C8.26607 17.4986 7.91002 17.2612 7.47717 17.0937C7.05828 16.9261 6.47183 16.7446 5.71783 16.5491C4.76835 16.2978 3.99341 16.0464 3.393 15.7951C2.80656 15.5298 2.30389 15.1249 1.885 14.5803C1.46611 14.0358 1.25667 13.3097 1.25667 12.4021C1.25667 11.5643 1.46611 10.8313 1.885 10.2029C2.30389 9.57461 2.89033 9.09289 3.64433 8.75778C4.39833 8.42267 5.27102 8.25511 6.26239 8.25511C7.67265 8.25511 8.82459 8.61117 9.71822 9.32328C10.6258 10.0214 11.1285 10.9849 11.2262 12.2136H8.58722C8.54533 11.683 8.294 11.2292 7.83322 10.8522C7.37244 10.4752 6.76506 10.2867 6.01106 10.2867C5.32687 10.2867 4.76835 10.4613 4.3355 10.8103C3.90265 11.1594 3.68622 11.6621 3.68622 12.3183C3.68622 12.7651 3.81887 13.1352 4.08417 13.4284C4.36343 13.7076 4.7125 13.9311 5.13139 14.0986C5.55028 14.2662 6.12276 14.4477 6.84883 14.6432C7.81228 14.9085 8.5942 15.1738 9.19461 15.4391C9.80898 15.7044 10.3256 16.1163 10.7445 16.6748C11.1774 17.2193 11.3938 17.9524 11.3938 18.8739C11.3938 19.614 11.1913 20.3121 10.7864 20.9684C10.3954 21.6246 9.81596 22.1552 9.048 22.5602C8.294 22.9511 7.40037 23.1466 6.36711 23.1466ZM16.5779 8.44361V17.722C16.5779 18.8251 16.8641 19.6559 17.4366 20.2144C18.023 20.7729 18.8329 21.0522 19.8661 21.0522C20.9134 21.0522 21.7232 20.7729 22.2957 20.2144C22.8821 19.6559 23.1754 18.8251 23.1754 17.722V8.44361H25.563V17.6801C25.563 18.867 25.3047 19.8723 24.7881 20.6961C24.2714 21.5199 23.5803 22.1343 22.7146 22.5392C21.8489 22.9441 20.8924 23.1466 19.8452 23.1466C18.798 23.1466 17.8415 22.9441 16.9758 22.5392C16.1241 22.1343 15.4469 21.5199 14.9442 20.6961C14.4415 19.8723 14.1902 18.867 14.1902 17.6801V8.44361H16.5779ZM40.6311 23H38.2434L31.0595 12.1298V23H28.6718V8.42267H31.0595L38.2434 19.2719V8.42267H40.6311V23ZM50.4059 23.1466C49.0515 23.1466 47.8018 22.8324 46.6569 22.2041C45.5259 21.5618 44.6252 20.6752 43.955 19.5442C43.2988 18.3992 42.9706 17.1146 42.9706 15.6904C42.9706 14.2662 43.2988 12.9886 43.955 11.8576C44.6252 10.7266 45.5259 9.84689 46.6569 9.21855C47.8018 8.57626 49.0515 8.25511 50.4059 8.25511C51.7743 8.25511 53.024 8.57626 54.155 9.21855C55.2999 9.84689 56.2005 10.7266 56.8568 11.8576C57.5131 12.9886 57.8412 14.2662 57.8412 15.6904C57.8412 17.1146 57.5131 18.3992 56.8568 19.5442C56.2005 20.6752 55.2999 21.5618 54.155 22.2041C53.024 22.8324 51.7743 23.1466 50.4059 23.1466ZM50.4059 21.0731C51.3694 21.0731 52.2281 20.8567 52.9821 20.4238C53.7361 19.977 54.3225 19.3487 54.7414 18.5388C55.1743 17.715 55.3907 16.7655 55.3907 15.6904C55.3907 14.6152 55.1743 13.6727 54.7414 12.8629C54.3225 12.053 53.7361 11.4317 52.9821 10.9988C52.2281 10.566 51.3694 10.3496 50.4059 10.3496C49.4425 10.3496 48.5837 10.566 47.8298 10.9988C47.0757 11.4317 46.4823 12.053 46.0495 12.8629C45.6306 13.6727 45.4211 14.6152 45.4211 15.6904C45.4211 16.7655 45.6306 17.715 46.0495 18.5388C46.4823 19.3487 47.0757 19.977 47.8298 20.4238C48.5837 20.8567 49.4425 21.0731 50.4059 21.0731Z" fill="#EAEAEA"/>
<path d="M80.7827 8.297V23H77.2012V14.1824L73.9129 23H71.0226L67.7134 14.1614V23H64.1319V8.297H68.3626L72.4887 18.476L76.5729 8.297H80.7827ZM90.3118 23.1466C88.9294 23.1466 87.6588 22.8255 86.4999 22.1832C85.3549 21.5409 84.4403 20.6472 83.7562 19.5023C83.0859 18.3434 82.7508 17.0448 82.7508 15.6066C82.7508 14.1684 83.0859 12.8769 83.7562 11.7319C84.4403 10.5869 85.3549 9.6933 86.4999 9.051C87.6588 8.4087 88.9294 8.08756 90.3118 8.08756C91.6941 8.08756 92.9578 8.4087 94.1027 9.051C95.2616 9.6933 96.1692 10.5869 96.8255 11.7319C97.4957 12.8769 97.8308 14.1684 97.8308 15.6066C97.8308 17.0448 97.4957 18.3434 96.8255 19.5023C96.1553 20.6472 95.2477 21.5409 94.1027 22.1832C92.9578 22.8255 91.6941 23.1466 90.3118 23.1466ZM90.3118 19.8793C91.4847 19.8793 92.4202 19.4883 93.1183 18.7064C93.8304 17.9245 94.1865 16.8912 94.1865 15.6066C94.1865 14.3081 93.8304 13.2748 93.1183 12.5068C92.4202 11.7249 91.4847 11.3339 90.3118 11.3339C89.1249 11.3339 88.1754 11.7179 87.4633 12.4859C86.7652 13.2539 86.4161 14.2941 86.4161 15.6066C86.4161 16.9052 86.7652 17.9454 87.4633 18.7273C88.1754 19.4953 89.1249 19.8793 90.3118 19.8793ZM113.626 8.297L108.411 23H103.928L98.7133 8.297H102.525L106.169 19.3976L109.835 8.297H113.626ZM118.704 8.297V23H115.123V8.297H118.704ZM124.881 11.1664V14.1405H129.677V16.9052H124.881V20.1306H130.306V23H121.3V8.297H130.306V11.1664H124.881ZM137.951 23.1466C136.876 23.1466 135.912 22.9721 135.06 22.623C134.209 22.2739 133.524 21.7573 133.008 21.0731C132.505 20.3889 132.24 19.5651 132.212 18.6017H136.024C136.08 19.1462 136.268 19.5651 136.589 19.8583C136.91 20.1376 137.329 20.2772 137.846 20.2772C138.377 20.2772 138.795 20.1585 139.103 19.9212C139.41 19.6698 139.563 19.3277 139.563 18.8949C139.563 18.5319 139.438 18.2316 139.186 17.9943C138.949 17.7569 138.649 17.5614 138.286 17.4078C137.937 17.2542 137.434 17.0797 136.778 16.8842C135.828 16.591 135.053 16.2978 134.453 16.0046C133.853 15.7113 133.336 15.2785 132.903 14.706C132.47 14.1335 132.254 13.3865 132.254 12.4649C132.254 11.0966 132.75 10.0284 133.741 9.26044C134.732 8.47852 136.024 8.08756 137.616 8.08756C139.235 8.08756 140.541 8.47852 141.532 9.26044C142.524 10.0284 143.054 11.1036 143.124 12.4859H139.249C139.221 12.0111 139.047 11.6411 138.726 11.3758C138.405 11.0966 137.993 10.9569 137.49 10.9569C137.057 10.9569 136.708 11.0756 136.443 11.313C136.177 11.5364 136.045 11.8645 136.045 12.2974C136.045 12.7721 136.268 13.1421 136.715 13.4074C137.162 13.6727 137.86 13.959 138.809 14.2662C139.759 14.5873 140.527 14.8945 141.113 15.1877C141.714 15.4809 142.23 15.9068 142.663 16.4653C143.096 17.0239 143.313 17.7429 143.313 18.6226C143.313 19.4604 143.096 20.2214 142.663 20.9056C142.244 21.5897 141.63 22.1343 140.82 22.5392C140.01 22.9441 139.054 23.1466 137.951 23.1466Z" fill="#FF559E"/>
<path d="M80.7827 8.297V23H77.2012V14.1824L73.9129 23H71.0226L67.7134 14.1614V23H64.1319V8.297H68.3626L72.4887 18.476L76.5729 8.297H80.7827ZM90.3118 23.1466C88.9294 23.1466 87.6588 22.8255 86.4999 22.1832C85.3549 21.5409 84.4403 20.6472 83.7562 19.5023C83.0859 18.3434 82.7508 17.0448 82.7508 15.6066C82.7508 14.1684 83.0859 12.8769 83.7562 11.7319C84.4403 10.5869 85.3549 9.6933 86.4999 9.051C87.6588 8.4087 88.9294 8.08756 90.3118 8.08756C91.6941 8.08756 92.9578 8.4087 94.1027 9.051C95.2616 9.6933 96.1692 10.5869 96.8255 11.7319C97.4957 12.8769 97.8308 14.1684 97.8308 15.6066C97.8308 17.0448 97.4957 18.3434 96.8255 19.5023C96.1553 20.6472 95.2477 21.5409 94.1027 22.1832C92.9578 22.8255 91.6941 23.1466 90.3118 23.1466ZM90.3118 19.8793C91.4847 19.8793 92.4202 19.4883 93.1183 18.7064C93.8304 17.9245 94.1865 16.8912 94.1865 15.6066C94.1865 14.3081 93.8304 13.2748 93.1183 12.5068C92.4202 11.7249 91.4847 11.3339 90.3118 11.3339C89.1249 11.3339 88.1754 11.7179 87.4633 12.4859C86.7652 13.2539 86.4161 14.2941 86.4161 15.6066C86.4161 16.9052 86.7652 17.9454 87.4633 18.7273C88.1754 19.4953 89.1249 19.8793 90.3118 19.8793ZM113.626 8.297L108.411 23H103.928L98.7133 8.297H102.525L106.169 19.3976L109.835 8.297H113.626ZM118.704 8.297V23H115.123V8.297H118.704ZM124.881 11.1664V14.1405H129.677V16.9052H124.881V20.1306H130.306V23H121.3V8.297H130.306V11.1664H124.881ZM137.951 23.1466C136.876 23.1466 135.912 22.9721 135.06 22.623C134.209 22.2739 133.524 21.7573 133.008 21.0731C132.505 20.3889 132.24 19.5651 132.212 18.6017H136.024C136.08 19.1462 136.268 19.5651 136.589 19.8583C136.91 20.1376 137.329 20.2772 137.846 20.2772C138.377 20.2772 138.795 20.1585 139.103 19.9212C139.41 19.6698 139.563 19.3277 139.563 18.8949C139.563 18.5319 139.438 18.2316 139.186 17.9943C138.949 17.7569 138.649 17.5614 138.286 17.4078C137.937 17.2542 137.434 17.0797 136.778 16.8842C135.828 16.591 135.053 16.2978 134.453 16.0046C133.853 15.7113 133.336 15.2785 132.903 14.706C132.47 14.1335 132.254 13.3865 132.254 12.4649C132.254 11.0966 132.75 10.0284 133.741 9.26044C134.732 8.47852 136.024 8.08756 137.616 8.08756C139.235 8.08756 140.541 8.47852 141.532 9.26044C142.524 10.0284 143.054 11.1036 143.124 12.4859H139.249C139.221 12.0111 139.047 11.6411 138.726 11.3758C138.405 11.0966 137.993 10.9569 137.49 10.9569C137.057 10.9569 136.708 11.0756 136.443 11.313C136.177 11.5364 136.045 11.8645 136.045 12.2974C136.045 12.7721 136.268 13.1421 136.715 13.4074C137.162 13.6727 137.86 13.959 138.809 14.2662C139.759 14.5873 140.527 14.8945 141.113 15.1877C141.714 15.4809 142.23 15.9068 142.663 16.4653C143.096 17.0239 143.313 17.7429 143.313 18.6226C143.313 19.4604 143.096 20.2214 142.663 20.9056C142.244 21.5897 141.63 22.1343 140.82 22.5392C140.01 22.9441 139.054 23.1466 137.951 23.1466Z" fill="url(#paint0_linear_54_30)" fill-opacity="0.5"/>
<defs>
<linearGradient id="paint0_linear_54_30" x1="107.944" y1="66.4583" x2="68.0694" y2="31.4167" gradientUnits="userSpaceOnUse">
<stop stop-color="#FE3189"/>
<stop offset="1" stop-color="#FF006E"/>
</linearGradient>
</defs>
</svg>
